PathFileType	4	(X/Y/Z)	/Users/niels/Desktop/University/Third Semester/Perception and Action/Exam/Gymnastics Motion Tracking/Code for Gym Tracking/Analyzed Data/Webcam_Backflip/id2001_3_baseline_Sports2D/id2001_3_baseline_Sports2D_px_person00.trc
DataRate	CameraRate	NumFrames	NumMarkers	Units	OrigDataRate	OrigDataStartFrame	OrigNumFrames
29.888475836431226	29.888475836431226	10	22	m	29.888475836431226	235	269
Frame#	Time	Hip			RHip			RKnee			RAnkle			RBigToe			RSmallToe			RHeel			LHip			LKnee			LAnkle			LBigToe			LSmallToe			LHeel			Neck			Head			Nose			RShoulder			RElbow			RWrist			LShoulder			LElbow			LWrist		
		X1	Y1	Z1	X2	Y2	Z2	X3	Y3	Z3	X4	Y4	Z4	X5	Y5	Z5	X6	Y6	Z6	X7	Y7	Z7	X8	Y8	Z8	X9	Y9	Z9	X10	Y10	Z10	X11	Y11	Z11	X12	Y12	Z12	X13	Y13	Z13	X14	Y14	Z14	X15	Y15	Z15	X16	Y16	Z16	X17	Y17	Z17	X18	Y18	Z18	X19	Y19	Z19	X20	Y20	Z20	X21	Y21	Z21	X22	Y22	Z22
235	7.862562189054727	0.982449684943501	-0.8285879016837269	0.0	0.8394407489076543	-0.8705261392389243	0.0	0.8457356287645068	-1.0538596873432555	0.0	0.6458104270443316	-1.013912286362431	0.0	1.6059312744140621	-1.1953297119140622	0.0	1.6316678466796872	-1.0674349365234375	0.0	1.3268730468750003	-1.0972822265625	0.0	1.0856983110351848	-0.8382126091851223	0.0	1.0971780665596276	-1.0641535027336628	0.0	1.3517717285156243	-1.0607098388671872	0.0	1.3989272460937503	-1.1993594970703132	0.0	1.3389144287109374	-1.1993594970703132	0.0	1.1831392822265623	-1.1112026367187497	0.0	0.934580194675777	-0.13597153526768804	0.0	1.1724228496875886	-0.11894445858207507	0.0	1.115228963255421	-0.01357649127539861	0.0	0.662096868186482	-0.18529940917421642	0.0	0.6317017475462291	-0.6513657134257159	0.0	0.6348399779571247	-1.0551584746982683	0.0	1.2348653738749205	-0.029862911043865497	0.0	1.2550507009525933	-0.3753928645151887	0.0	1.2754574058552515	-0.6534147906054479	0.0
236	7.896019900497513	0.9842193886574904	-0.8282534500173494	0.0	0.8435913624105065	-0.8699802880557562	0.0	0.8484141643946014	-1.055539109161384	0.0	0.6457952890583516	-1.013885640983428	0.0	1.6059312744140621	-1.1953297119140622	0.0	1.6316678466796872	-1.0674349365234375	0.0	1.3268730468750003	-1.0972822265625	0.0	1.0865284992448505	-0.8378287101094513	0.0	1.0977210383336884	-1.0656327286422052	0.0	1.3517717285156243	-1.0607098388671872	0.0	1.3989272460937503	-1.1993594970703132	0.0	1.3389144287109374	-1.1993594970703132	0.0	1.1831392822265623	-1.1112026367187497	0.0	0.9354667861884969	-0.13416037483701215	0.0	1.1731478821934254	-0.11623293010341075	0.0	1.1141128511248104	-0.01342282295323672	0.0	0.6638187763665835	-0.18438135062618385	0.0	0.6320467166412055	-0.6487303382151725	0.0	0.6332646705325796	-1.0551235568048642	0.0	1.2352826946720934	-0.0305614901349881	0.0	1.2534507222911935	-0.3765039361763059	0.0	1.2734298102002184	-0.6554921076816353	0.0
237	7.9294776119403	0.985934773281889	-0.8282058518348143	0.0	0.8477575881753805	-0.8694388379694723	0.0	0.8494384464555128	-1.0577155076361209	0.0	0.6457740934105982	-1.0138632257992508	0.0	1.6059312744140621	-1.1953297119140622	0.0	1.6316678466796872	-1.0674349365234375	0.0	1.3268730468750003	-1.0972822265625	0.0	1.087444016317877	-0.8374922189692223	0.0	1.0992812356391597	-1.067718806705411	0.0	1.3517717285156243	-1.0607098388671872	0.0	1.3989272460937503	-1.1993594970703132	0.0	1.3389144287109374	-1.1993594970703132	0.0	1.1831392822265623	-1.1112026367187497	0.0	0.9363745069294418	-0.13272665060318764	0.0	1.1726738956031573	-0.11276123874973042	0.0	1.1101782955444115	-0.013154020235915928	0.0	0.6654857996146692	-0.1836311946784738	0.0	0.6327789497927708	-0.6471963564407897	0.0	0.6331084047507577	-1.0556321960176436	0.0	1.2355261584988741	-0.031360178816101314	0.0	1.2518522587699075	-0.37796003576669596	0.0	1.2714260632954815	-0.6577927391714999	0.0
238	7.9629353233830855	0.9873165692147062	-0.828257099879982	0.0	0.8513306197101	-0.8688761198749186	0.0	0.8494565152490143	-1.059929267653652	0.0	0.6457559831460025	-1.0138485162136461	0.0	1.6059312744140621	-1.1953297119140622	0.0	1.6316678466796872	-1.0674349365234375	0.0	1.3268730468750003	-1.0972822265625	0.0	1.0883606176671077	-0.8370087859322897	0.0	1.101711585501306	-1.0698424463208307	0.0	1.3517717285156243	-1.0607098388671872	0.0	1.3989272460937503	-1.1993594970703132	0.0	1.3389144287109374	-1.1993594970703132	0.0	1.1831392822265623	-1.1112026367187497	0.0	0.9370874537897403	-0.13168051459866476	0.0	1.1715650590396036	-0.1091192729896852	0.0	1.1051091691188966	-0.013018383455511403	0.0	0.6670674442478756	-0.18290598574339856	0.0	0.6339593838638796	-0.6465655185967355	0.0	0.6341147289353259	-1.0564393380543573	0.0	1.23553549367153	-0.03198247355961195	0.0	1.2502027583583124	-0.3795756496211136	0.0	1.2694741388273012	-0.6600119712583454	0.0
239	7.996393034825871	0.9883076890727792	-0.8279805890326204	0.0	0.8540044225837921	-0.8681249643261968	0.0	0.848985826781583	-1.0618399314236375	0.0	0.6457437715968712	-1.0138407871854105	0.0	1.6059312744140621	-1.1953297119140622	0.0	1.6316678466796872	-1.0674349365234375	0.0	1.3268730468750003	-1.0972822265625	0.0	1.089325829741184	-0.8360703645191151	0.0	1.1049645959762802	-1.0714951636399779	0.0	1.3517717285156243	-1.0607098388671872	0.0	1.3989272460937503	-1.1993594970703132	0.0	1.3389144287109374	-1.1993594970703132	0.0	1.1831392822265623	-1.1112026367187497	0.0	0.9374528426046431	-0.1309649535658988	0.0	1.1704335195494278	-0.10578000629751498	0.0	1.1006211394193703	-0.013445271905491116	0.0	0.6684214343691262	-0.1822162810890071	0.0	0.6355384700119657	-0.6466619957451795	0.0	0.6360093328076468	-1.0573041888154262	0.0	1.235334206895259	-0.032167789788963966	0.0	1.2484834820659951	-0.3811842367152155	0.0	1.2675864166053041	-0.6619288059110864	0.0
240	8.029850746268657	0.9889860339296841	-0.8270980981707898	0.0	0.8558542391592119	-0.8669884525996061	0.0	0.848300430498247	-1.063345293680809	0.0	0.6457368882996636	-1.013837771408344	0.0	1.6059312744140621	-1.1953297119140622	0.0	1.6316678466796872	-1.0674349365234375	0.0	1.3268730468750003	-1.0972822265625	0.0	1.0904004829580636	-0.8345755507738183	0.0	1.1089164031718823	-1.0724043033188726	0.0	1.3517717285156243	-1.0607098388671872	0.0	1.3989272460937503	-1.1993594970703132	0.0	1.3389144287109374	-1.1993594970703132	0.0	1.1831392822265623	-1.1112026367187497	0.0	0.9376141889515937	-0.13039394140924937	0.0	1.1696549682169557	-0.1031840017872639	0.0	1.0979581560666658	-0.014760411522714494	0.0	0.6695030620981105	-0.18169415724996418	0.0	0.6373773491508847	-0.6474317193419241	0.0	0.6385705117271065	-1.058172169300386	0.0	1.235103141749387	-0.03179174381067636	0.0	1.2467087280924216	-0.38268246058604166	0.0	1.265789961952061	-0.663528546246263	0.0
241	8.063308457711443	0.9893967387829333	-0.8256367035132206	0.0	0.8570403629194084	-0.8653275669313035	0.0	0.847533707530322	-1.0644264796679288	0.0	0.6457335829797569	-1.0138372223709535	0.0	1.6059312744140621	-1.1953297119140622	0.0	1.6316678466796872	-1.0674349365234375	0.0	1.3268730468750003	-1.0972822265625	0.0	1.0915743740366566	-0.8327029513487801	0.0	1.113161734618185	-1.0725342276848857	0.0	1.3517717285156243	-1.0607098388671872	0.0	1.3989272460937503	-1.1993594970703132	0.0	1.3389144287109374	-1.1993594970703132	0.0	1.1831392822265623	-1.1112026367187497	0.0	0.9378573262943177	-0.12985177119082003	0.0	1.1693280688807839	-0.10175202221491268	0.0	1.097455161847189	-0.016902441027204732	0.0	0.6704223463302248	-0.18142916731782222	0.0	0.6393045619776551	-0.6488374254619329	0.0	0.6416015022975571	-1.05916864421903	0.0	1.2350432206646165	-0.030963842371173295	0.0	1.24488055660418	-0.3840989894688191	0.0	1.2640911023955173	-0.6648770409945425	0.0
242	8.096766169154229	0.9895003876584298	-0.8238620760717065	0.0	0.857621913857845	-0.8632279952873437	0.0	0.8468109869555736	-1.0649827357431247	0.0	0.6457322938615443	-1.0138376443336639	0.0	1.6059312744140621	-1.1953297119140622	0.0	1.6316678466796872	-1.0674349365234375	0.0	1.3268730468750003	-1.0972822265625	0.0	1.0927007587846798	-0.8307923915237192	0.0	1.1171933691305191	-1.0720199067381888	0.0	1.3517717285156243	-1.0607098388671872	0.0	1.3989272460937503	-1.1993594970703132	0.0	1.3389144287109374	-1.1993594970703132	0.0	1.1831392822265623	-1.1112026367187497	0.0	0.9383239428326087	-0.12941872791065978	0.0	1.1694369634797797	-0.10147140780596553	0.0	1.0985992826934758	-0.019348415960896852	0.0	0.6712854495926233	-0.18137947915480335	0.0	0.6411924160359642	-0.6506315860496874	0.0	0.6448798361140936	-1.0603282617184646	0.0	1.2351820386581065	-0.029975873286639466	0.0	1.2430037381964147	-0.3854709719255858	0.0	1.2624768730925586	-0.6659701109981593	0.0
243	8.130223880597015	0.9892682400236829	-0.8221693855077341	0.0	0.8577237917508488	-0.8611529644950737	0.0	0.8462404530234902	-1.06490617988448	0.0	0.6457323683291882	-1.0138385210568144	0.0	1.6059312744140621	-1.1953297119140622	0.0	1.6316678466796872	-1.0674349365234375	0.0	1.3268730468750003	-1.0972822265625	0.0	1.093518678542542	-0.8291912243145654	0.0	1.120769253418663	-1.071068328421251	0.0	1.3517717285156243	-1.0607098388671872	0.0	1.3989272460937503	-1.1993594970703132	0.0	1.3389144287109374	-1.1993594970703132	0.0	1.1831392822265623	-1.1112026367187497	0.0	0.938884757601839	-0.12922128251346737	0.0	1.1699096133386289	-0.10195779147754748	0.0	1.1006188836994066	-0.021303364137525444	0.0	0.672074991335888	-0.1814189943010798	0.0	0.6429869441814838	-0.6523212863586291	0.0	0.6481037890694165	-1.0614322268087295	0.0	1.2353364913103175	-0.029093635635158394	0.0	1.2411445672301946	-0.38669438744860074	0.0	1.2609364414944275	-0.6667442974560855	0.0
244	8.163681592039802	0.9887872996659426	-0.8209104479970494	0.0	0.8576807814515071	-0.8597472054459956	0.0	0.8459155220302121	-1.064232170577553	0.0	0.6457343478299581	-1.0138402869046403	0.0	1.6059312744140621	-1.1953297119140622	0.0	1.6316678466796872	-1.0674349365234375	0.0	1.3268730468750003	-1.0972822265625	0.0	1.0938718447502682	-0.8281022679799784	0.0	1.1240443618908214	-1.0698795684182023	0.0	1.3517717285156243	-1.0607098388671872	0.0	1.3989272460937503	-1.1993594970703132	0.0	1.3389144287109374	-1.1993594970703132	0.0	1.1831392822265623	-1.1112026367187497	0.0	0.9392764172014123	-0.12923976331749648	0.0	1.170587529754767	-0.10287480689993496	0.0	1.1027781046239278	-0.021994682302929107	0.0	0.6727738903672933	-0.18132589559844575	0.0	0.6446525216369435	-0.6533511546974665	0.0	0.6508522624019053	-1.062169253022238	0.0	1.235250119003635	-0.028414025544321448	0.0	1.2394082857228248	-0.3875692039995133	0.0	1.2594137683831226	-0.6671568953129309	0.0
